<svg width="96" height="137" viewBox="0 0 96 137" fill="none" xmlns="http://www.w3.org/2000/svg"><path d="M23.248 7.014H6.814v123.172h19.92v-79.68c0-.221.055-.498.166-.83.221-.332.443-.553.664-.664l.83-.498h.996c.221 0 .498.11.83.332.332.11.553.332.664.664l.332.166 36.852 70.384 2.656 4.15c1.328 2.103 2.822 3.652 4.482 4.648 1.77.885 4.427 1.328 7.968 1.328h8.3c.664 0 1.217.277 1.66.83.443.443.664.996.664 1.66 0 .664-.221 1.217-.664 1.66-.443.443-.996.664-1.66.664h-8.3c-3.984 0-7.304-.609-9.96-1.826-2.545-1.328-4.759-3.486-6.64-6.474l-2.656-3.984v-.166l-32.37-62.084v72.21c0 .664-.277 1.217-.83 1.66-.443.443-.996.664-1.66.664H4.324c-.664 0-1.217-.221-1.66-.664-.443-.443-.664-.996-.664-1.66V4.524c0-.664.221-1.217.664-1.66.443-.443.996-.664 1.66-.664h18.924c2.767 0 5.146.443 7.138 1.328 2.103.775 3.763 1.826 4.98 3.154 1.328 1.328 2.6 3.099 3.818 5.312l49.966 90.47V7.014H68.4v27.888c0 .664-.221 1.217-.664 1.66-.443.443-.996.664-1.66.664-.443 0-.885-.11-1.328-.332a2.963 2.963 0 0 1-.83-.83 2.046 2.046 0 0 1-.332-1.162V4.524c0-.664.221-1.217.664-1.66.553-.443 1.162-.664 1.826-.664h25.398c.664 0 1.217.221 1.66.664.443.443.664.996.664 1.66v107.568c0 .221-.11.498-.332.83a.998.998 0 0 1-.664.664l-.166.166c-.332.221-.553.332-.664.332h-.664c-.332 0-.664-.111-.996-.332-.443-.221-.72-.443-.83-.664l-.166-.332-54.282-98.438c-1.55-2.767-3.154-4.648-4.814-5.644-1.55-1.107-3.873-1.66-6.972-1.66z" fill="#FF6A8E"/><path d="M6.814 7.014v-2h-2v2h2zm0 123.172h-2v2h2v-2zm19.92 0v2h2v-2h-2zm.166-80.51l-1.664-1.11-.149.223-.084.255 1.897.632zm.664-.664l.894 1.789.07-.035.065-.039-1.029-1.715zm.83-.498v-2h-.554l-.475.285 1.029 1.715zm1.826.332l-1.11 1.664.223.149.255.084.632-1.897zm.664.664l-1.897.633.262.785.74.37.895-1.788zm.332.166l1.772-.928-.3-.572-.578-.289-.894 1.789zm36.852 70.384l-1.772.928.04.077.047.073 1.685-1.078zm2.656 4.15l1.691-1.068-.007-.01-1.684 1.078zm4.482 4.648l-1.029 1.715.066.04.069.034.894-1.789zm17.928 2.158l-1.562 1.249.07.087.078.078 1.414-1.414zm-19.92 2.158l-.925 1.773.045.024.047.021.833-1.818zm-6.64-6.474l1.692-1.066-.013-.022-.015-.021-1.664 1.109zm-2.656-3.984h-2v.606l.336.503 1.664-1.109zm0-.166h2v-.49l-.227-.435-1.773.925zm-32.37-62.084l1.773-.925-3.773.925h2zm-.83 73.87l-1.25-1.562-.086.069-.078.079 1.414 1.414zM2.664 2.864L1.25 1.45l1.414 1.414zm27.722.664l-.812 1.828.06.026.06.023.692-1.877zm4.98 3.154l-1.474 1.351.03.032.03.031 1.414-1.414zm3.818 5.312l-1.752.964.001.003 1.751-.967zm49.966 90.47l-1.75.967 3.75-.967h-2zm0-95.45h2v-2h-2v2zm-20.75 0v-2h-2v2h2zm-.664 29.548l-1.414-1.414 1.414 1.414zm-2.988.332l-1.11 1.664.104.07.112.055.894-1.789zm-.83-.83l-1.664 1.11 1.664-1.11zm.332-33.2L63 1.302l-.086.07-.078.078 1.414 1.414zm28.884 0l1.414-1.414-1.414 1.414zm.332 110.058l-1.664-1.109-.149.222-.084.255 1.897.632zm-.664.664l-.633-1.897-.447.149-.334.334 1.414 1.414zm-.166.166l1.11 1.664.164-.11.14-.14-1.414-1.414zm-2.324 0l1.11-1.664-.104-.069-.112-.056-.894 1.789zm-.83-.664l-1.789.894 1.789-.894zm-.166-.332l1.789-.894-.018-.036-.02-.036-1.751.966zM35.034 14.318l1.751-.966-.006-.011-1.745.977zM30.22 8.674l-1.162 1.628.064.046.069.041 1.029-1.715zm-6.972-3.66H6.814v4h16.434v-4zm-18.434 2v123.172h4V7.014h-4zm2 125.172h19.92v-4H6.814v4zm21.92-2V51.004h-4v79.182h4zm0-79.182v-.498h-4v.498h4zm0-.498c0 .051-.006.061.003.019a1.84 1.84 0 0 1 .06-.216l-3.794-1.265c-.144.431-.269.938-.269 1.462h4zm-.17.28c.027-.041.049-.07.064-.089l.018-.022a.928.928 0 0 1-.188.126l-1.788-3.578c-.669.334-1.126.881-1.434 1.344l3.328 2.218zm.029-.059l.013-.008.013-.008a.054.054 0 0 0 .006-.004l.003-.001.003-.002.004-.002.003-.002.003-.002a.054.054 0 0 0 .003-.002c.001 0 .002 0 .003-.002l.003-.001.007-.004.012-.008.024-.014.095-.057.168-.1.26-.157.025-.015.023-.014.042-.025.065-.039.012-.007.006-.004.002-.001.003-.002.009-.005.007-.004a.365.365 0 0 1 .01-.006l.002-.002h.001l-1.029-1.715-1.029-1.715-.002.001-.001.001-.004.002-.006.004-.039.023-.155.093-.117.07-.068.041-.075.045c-.048.03-.28.168-.363.218l2.058 3.43zm-.199-.213h.996v-4h-.996v4zm.996 0c-.215 0-.348-.052-.37-.06-.024-.01.004-.002.09.056l2.22-3.328c-.432-.288-1.117-.668-1.94-.668v4zm.197.23a.963.963 0 0 1-.366-.235.964.964 0 0 1-.234-.367l3.794-1.265c-.31-.929-1-1.619-1.928-1.928l-1.266 3.794zm.402.555l.332.166 1.79-3.578-.332-.166-1.79 3.578zm-.545-.695l36.852 70.384 3.544-1.856-36.852-70.384-3.544 1.856zm36.94 70.534l2.656 4.15 3.368-2.156-2.656-4.15-3.368 2.156zm2.649 4.14c1.449 2.294 3.15 4.099 5.144 5.295l2.058-3.43c-1.326-.796-2.613-2.09-3.82-4.001l-3.382 2.136zm5.279 5.369c2.188 1.094 5.219 1.539 8.862 1.539v-4c-3.44 0-5.72-.44-7.074-1.117l-1.788 3.578zm8.862 1.539h8.3v-4h-8.3v4zm8.3 0c.026 0 .036.003.034.002a.036.036 0 0 1-.015-.006c-.006-.003-.004-.002.008.007.012.011.037.033.071.076l3.124-2.498c-.793-.991-1.905-1.581-3.222-1.581v4zm.246.244c.04.04.05.063.055.076a.461.461 0 0 1 .023.17h4c0-1.159-.407-2.232-1.25-3.074l-2.828 2.828zm.078.246a.461.461 0 0 1-.023.17.22.22 0 0 1-.055.076l2.828 2.828c.843-.842 1.25-1.915 1.25-3.074h-4zm-.078.246a.226.226 0 0 1-.076.055.46.46 0 0 1-.17.023v4c1.159 0 2.232-.408 3.074-1.25l-2.828-2.828zm-.246.078h-8.3v4h8.3v-4zm-8.3 0c-3.795 0-6.809-.582-9.127-1.644l-1.666 3.636C75.375 136.365 79 137 83.174 137v-4zm-9.035-1.599c-2.167-1.131-4.137-3.01-5.873-5.767l-3.385 2.132c2.027 3.219 4.484 5.656 7.408 7.181l1.85-3.546zm-5.9-5.81l-2.657-3.984-3.328 2.218 2.656 3.984 3.328-2.218zm-2.321-2.875v-.166h-4v.166h4zm-.227-1.091l-32.37-62.084-3.546 1.85 32.37 62.084 3.546-1.85zM29.548 60.466v72.21h4v-72.21h-4zm0 72.21c0 .026-.003.036-.002.034 0-.003.003-.009.006-.015s.002-.004-.007.008a.524.524 0 0 1-.076.071l2.498 3.124c.992-.793 1.581-1.905 1.581-3.222h-4zm-.244.246a.226.226 0 0 1-.076.055.46.46 0 0 1-.17.023v4c1.159 0 2.232-.408 3.074-1.25l-2.828-2.828zm-.246.078H4.324v4h24.734v-4zm-24.734 0a.461.461 0 0 1-.17-.023.226.226 0 0 1-.076-.055L1.25 135.75c.842.842 1.915 1.25 3.074 1.25v-4zm-.246-.078a.218.218 0 0 1-.055-.076.46.46 0 0 1-.023-.17H0c0 1.159.408 2.232 1.25 3.074l2.828-2.828zM4 132.676V4.524H0v128.152h4zM4 4.524c0-.107.017-.155.023-.17a.22.22 0 0 1 .055-.076L1.25 1.45C.408 2.292 0 3.365 0 4.524h4zm.078-.246a.21.21 0 0 1 .076-.055.463.463 0 0 1 .17-.023v-4C3.165.2 2.092.608 1.25 1.45l2.828 2.828zm.246-.078h18.924v-4H4.324v4zm18.924 0c2.56 0 4.648.41 6.326 1.156L31.198 1.7C28.892.675 26.222.2 23.248.2v4zm6.447 1.205c1.875.69 3.24 1.586 4.197 2.628l2.948-2.702c-1.479-1.614-3.432-2.821-5.763-3.68l-1.382 3.754zm4.257 2.691c1.157 1.158 2.324 2.76 3.48 4.862l3.504-1.928c-1.279-2.325-2.657-4.264-4.156-5.762l-2.828 2.828zm3.481 4.865L87.4 103.43l3.502-1.934-49.966-90.47-3.502 1.934zm53.717 89.503V7.014h-4v95.45h4zm-2-97.45H68.4v4h20.75v-4zm-22.75 2v27.888h4V7.014h-4zm0 27.888a.46.46 0 0 1-.023.17.219.219 0 0 1-.055.076l2.828 2.828c.843-.842 1.25-1.915 1.25-3.074h-4zm-.078.246a.219.219 0 0 1-.076.055.46.46 0 0 1-.17.023v4c1.159 0 2.232-.407 3.074-1.25l-2.828-2.828zm-.246.078a.96.96 0 0 1-.434-.12l-1.788 3.577a4.944 4.944 0 0 0 2.222.543v-4zm-.219.004a.965.965 0 0 1-.275-.275l-3.328 2.218a4.964 4.964 0 0 0 1.385 1.385l2.218-3.328zm-.275-.275a.09.09 0 0 1 .01.02v-.004a.44.44 0 0 1-.005-.07h-4.001c0 .794.204 1.576.668 2.272l3.328-2.218zm.004-.053V4.524h-4v30.378h4zm0-30.378c0-.107.017-.155.023-.17a.219.219 0 0 1 .055-.076L62.836 1.45c-.843.842-1.25 1.915-1.25 3.074h4zm-.087-.098c.225-.18.399-.226.577-.226v-4c-1.15 0-2.193.396-3.075 1.102l2.498 3.124zm.577-.226h25.398v-4H66.076v4zm25.398 0c.107 0 .155.017.17.023a.22.22 0 0 1 .076.055l2.828-2.828C93.706.608 92.633.2 91.474.2v4zm.246.078c.04.04.05.063.055.076a.465.465 0 0 1 .023.17h4c0-1.159-.407-2.232-1.25-3.074L91.72 4.278zm.078.246v107.07h4V4.524h-4zm0 107.07v.498h4v-.498h-4zm0 .498c0-.215.052-.348.06-.369.01-.025.002.003-.056.09l3.328 2.218c.288-.431.668-1.116.668-1.939h-4zm-.23.198a.956.956 0 0 1 .235-.367.957.957 0 0 1 .367-.234l1.264 3.794a2.993 2.993 0 0 0 1.93-1.929l-3.795-1.264zm1.234 1.296l-1.414-1.414-.003.002-.003.004-.001.001-.001.001-.002.002c-.004.004-.02.021-.032.031l-.023.024-.014.013-.015.015-.016.016-.017.018-.04.039 2.83 2.828.072-.072.052-.052.018-.018.013-.013.004-.005.001-.001.001-.001.001-.001.002-.001v-.001l.001-.001-1.414-1.414zm-1.275-1.498a3.43 3.43 0 0 1-.148.094l-.052.03a1.429 1.429 0 0 1 .3-.094c.078-.016.197-.034.345-.034v4c.565 0 1.017-.231 1.143-.294.216-.108.432-.241.63-.374l-2.218-3.328zm.445-.004h-.664v4h.664v-4zm-.664 0c.06 0 .108.011.134.02.025.008.018.009-.02-.016l-2.22 3.328c.594.396 1.305.668 2.106.668v-4zm-.102-.121a1.815 1.815 0 0 1-.147-.08l-.037-.025a.622.622 0 0 1 .08.079c.043.05.108.134.169.257l-3.578 1.788c.42.84 1.219 1.306 1.725 1.559l1.788-3.578zm.065.231l-.166-.332-3.578 1.788.166.332 3.578-1.788zm-.204-.404L36.785 13.352l-3.502 1.932 54.282 98.438 3.502-1.932zM36.78 13.34c-1.623-2.897-3.438-5.126-5.53-6.381l-2.058 3.43c1.228.737 2.622 2.27 4.098 4.906l3.49-1.954zm-5.397-6.293c-2.041-1.459-4.858-2.033-8.134-2.033v4c2.921 0 4.752.532 5.81 1.288l2.325-3.255z" fill="#021C4B"/></svg>