<svg width="373" height="137" viewBox="0 0 373 137" fill="none" xmlns="http://www.w3.org/2000/svg"><path d="M21.248 7.014H4.814v123.172h19.92v-79.68c0-.221.055-.498.166-.83.221-.332.443-.553.664-.664l.83-.498h.996c.221 0 .498.11.83.332.332.11.553.332.664.664l.332.166 36.852 70.384 2.656 4.15c1.328 2.103 2.822 3.652 4.482 4.648 1.77.885 4.427 1.328 7.968 1.328h8.3c.664 0 1.217.277 1.66.83.443.443.664.996.664 1.66 0 .664-.221 1.217-.664 1.66-.443.443-.996.664-1.66.664h-8.3c-3.984 0-7.304-.609-9.96-1.826-2.545-1.328-4.759-3.486-6.64-6.474l-2.656-3.984v-.166l-32.37-62.084v72.21c0 .664-.277 1.217-.83 1.66-.443.443-.996.664-1.66.664H2.324c-.664 0-1.217-.221-1.66-.664-.443-.443-.664-.996-.664-1.66V4.524c0-.664.221-1.217.664-1.66.443-.443.996-.664 1.66-.664h18.924c2.767 0 5.146.443 7.138 1.328 2.103.775 3.763 1.826 4.98 3.154 1.328 1.328 2.6 3.099 3.818 5.312l49.966 90.47V7.014H66.4v27.888c0 .664-.221 1.217-.664 1.66-.443.443-.996.664-1.66.664-.443 0-.885-.11-1.328-.332a2.963 2.963 0 0 1-.83-.83 2.046 2.046 0 0 1-.332-1.162V4.524c0-.664.221-1.217.664-1.66.553-.443 1.162-.664 1.826-.664h25.398c.664 0 1.217.221 1.66.664.443.443.664.996.664 1.66v107.568c0 .221-.11.498-.332.83a.998.998 0 0 1-.664.664l-.166.166c-.332.221-.553.332-.664.332h-.664c-.332 0-.664-.111-.996-.332-.443-.221-.72-.443-.83-.664l-.166-.332-54.282-98.438c-1.55-2.767-3.154-4.648-4.814-5.644-1.55-1.107-3.873-1.66-6.972-1.66zM173.029 135h-62.416c-.664 0-1.217-.221-1.66-.664-.443-.443-.664-.996-.664-1.66V90.18c0-3.873 1.383-7.193 4.15-9.96 2.767-2.877 6.142-4.371 10.126-4.482h39.342v-16.6h-26.56c-.664 0-1.217-.221-1.66-.664-.443-.443-.664-.996-.664-1.66V27.1c0-.664.221-1.217.664-1.66.443-.553.996-.83 1.66-.83h35.358V7.014h-57.602v61.088c0 .664-.277 1.217-.83 1.66-.443.332-.996.498-1.66.498-.664 0-1.217-.166-1.66-.498-.443-.443-.664-.996-.664-1.66V4.524c0-.664.221-1.217.664-1.66.443-.443.996-.664 1.66-.664h62.416c.664 0 1.217.221 1.66.664.553.443.83.996.83 1.66V27.1c0 .664-.277 1.217-.83 1.66-.443.443-.996.664-1.66.664h-35.192v24.9h26.394c.443 0 .83.11 1.162.332.332.221.609.553.83.996.221.332.332.72.332 1.162v21.414c0 .664-.221 1.217-.664 1.66-.443.332-.996.498-1.66.498h-41.002c-1.881 0-3.597.443-5.146 1.328a9.645 9.645 0 0 0-3.652 3.652 9.878 9.878 0 0 0-1.328 4.98v39.84h57.602V112.59h-35.358c-.443 0-.83-.111-1.162-.332a2.955 2.955 0 0 1-.83-.83 2.951 2.951 0 0 1-.332-1.328V93.666c0-.664.221-1.217.664-1.66.443-.443.996-.664 1.66-.664.664 0 1.217.221 1.66.664.553.443.83.996.83 1.66v14.11h35.192c.664 0 1.217.221 1.66.664.553.443.83.996.83 1.66v22.576c0 .664-.277 1.217-.83 1.66-.443.443-.996.664-1.66.664zm59.923 1.992h-.332c-2.545 0-4.869-.332-6.972-.996-2.102-.553-3.873-1.383-5.312-2.49a51.522 51.522 0 0 1-3.486-3.486c-.996-1.107-1.826-2.435-2.49-3.984-.553-1.66-.996-2.877-1.328-3.652l-.83-3.32-.166-.996c-1.106-4.98-1.549-18.426-1.328-40.338v-7.304c0-19.92.886-32.37 2.656-37.35 2.214-6.64 5.81-9.96 10.79-9.96 3.099 0 5.534.775 7.304 2.324 1.771 1.55 3.265 4.15 4.482 7.802 1.55 5.09 2.324 16.6 2.324 34.528 0 17.264-.442 28.497-1.328 33.698-1.106 6.419-3.375 10.513-6.806 12.284-1.438.664-2.49.277-3.154-1.162-.664-1.549-.332-2.601.996-3.154 2.103-1.107 3.486-4.039 4.15-8.798.996-6.197 1.494-17.153 1.494-32.868 0-17.153-.774-28.165-2.324-33.034-.774-2.656-1.715-4.427-2.822-5.312-.996-.885-2.434-1.328-4.316-1.328-1.217 0-2.379.443-3.486 1.328-.996.885-1.936 2.6-2.822 5.146-1.66 4.648-2.49 16.6-2.49 35.856v7.304c-.221 21.248.222 34.362 1.328 39.342l.332.83c.332 1.66.609 2.933.83 3.818.332.775.886 1.937 1.66 3.486.775 1.549 1.66 2.767 2.656 3.652.996.775 2.435 1.494 4.316 2.158 1.882.664 4.04.996 6.474.996h.332c4.648 0 8.743-1.826 12.284-5.478 3.542-3.763 6.253-8.743 8.134-14.94 1.992-6.197 3.486-12.782 4.482-19.754.996-6.972 1.494-14.276 1.494-21.912 0-14.719-1.272-26.837-3.818-36.354-2.434-9.628-6.252-16.766-11.454-21.414-5.09-4.648-11.675-6.972-19.754-6.972-12.062 0-20.971 5.09-26.726 15.272-5.754 10.07-8.632 25.785-8.632 47.144 0 23.13 3.21 40.449 9.628 51.958.111 0 .277.221.498.664.332.443.664.941.996 1.494.332.553.72 1.107 1.162 1.66.443.443.609.996.498 1.66 0 .664-.221 1.217-.664 1.66-.442.443-1.051.664-1.826.664-.664-.111-1.162-.387-1.494-.83a35.65 35.65 0 0 1-3.154-4.482c-6.972-12.173-10.458-30.323-10.458-54.448 0-22.687 3.32-39.563 9.96-50.63C201.08 5.797 211.151.208 224.652.208c4.427 0 8.411.609 11.952 1.826 3.652 1.107 6.751 2.767 9.296 4.98a36.377 36.377 0 0 1 6.972 7.304c2.103 2.767 3.818 5.976 5.146 9.628a93.255 93.255 0 0 1 3.32 10.79c.886 3.541 1.55 7.47 1.992 11.786.443 4.205.72 8.134.83 11.786.222 3.652.332 7.525.332 11.62 0 8.521-.553 16.6-1.66 24.236-1.106 7.636-2.877 14.774-5.312 21.414-2.324 6.529-5.644 11.731-9.96 15.604-4.205 3.873-9.074 5.81-14.608 5.81zM302.346 7.014h-16.434v123.172h19.92v-79.68c0-.221.055-.498.166-.83.221-.332.442-.553.664-.664l.83-.498h.996c.221 0 .498.11.83.332.332.11.553.332.664.664l.332.166 36.852 70.384 2.656 4.15c1.328 2.103 2.822 3.652 4.482 4.648 1.77.885 4.426 1.328 7.968 1.328h8.3c.664 0 1.217.277 1.66.83.442.443.664.996.664 1.66 0 .664-.222 1.217-.664 1.66-.443.443-.996.664-1.66.664h-8.3c-3.984 0-7.304-.609-9.96-1.826-2.546-1.328-4.759-3.486-6.64-6.474l-2.656-3.984v-.166l-32.37-62.084v72.21c0 .664-.277 1.217-.83 1.66-.443.443-.996.664-1.66.664h-24.734c-.664 0-1.218-.221-1.66-.664-.443-.443-.664-.996-.664-1.66V4.524c0-.664.221-1.217.664-1.66.442-.443.996-.664 1.66-.664h18.924c2.766 0 5.146.443 7.138 1.328 2.102.775 3.762 1.826 4.98 3.154 1.328 1.328 2.6 3.099 3.818 5.312l49.966 90.47V7.014h-20.75v27.888c0 .664-.222 1.217-.664 1.66-.443.443-.996.664-1.66.664-.443 0-.886-.11-1.328-.332a2.959 2.959 0 0 1-.83-.83 2.04 2.04 0 0 1-.332-1.162V4.524c0-.664.221-1.217.664-1.66.553-.443 1.162-.664 1.826-.664h25.398c.664 0 1.217.221 1.66.664.442.443.664.996.664 1.66v107.568c0 .221-.111.498-.332.83a1 1 0 0 1-.664.664l-.166.166c-.332.221-.554.332-.664.332h-.664c-.332 0-.664-.111-.996-.332-.443-.221-.72-.443-.83-.664l-.166-.332-54.282-98.438c-1.55-2.767-3.154-4.648-4.814-5.644-1.55-1.107-3.874-1.66-6.972-1.66z" fill="#FF6A8E"/></svg>